<?xml version="1.0" standalone="no"?>
<!DOCTYPE svg PUBLIC "-//W3C//DTD SVG 20010904//EN"
 "http://www.w3.org/TR/2001/REC-SVG-20010904/DTD/svg10.dtd">
<svg version="1.0" xmlns="http://www.w3.org/2000/svg"
 width="300.000000pt" height="300.000000pt" viewBox="0 0 300.000000 300.000000"
 preserveAspectRatio="xMidYMid meet">

<g transform="translate(0.000000,300.000000) scale(0.100000,-0.100000)"
fill="#bc2527" stroke="none">
<path d="M1355 2889 c-124 -8 -150 -13 -250 -48 -44 -16 -106 -36 -138 -45
-31 -10 -68 -28 -82 -40 -14 -13 -40 -29 -58 -36 -77 -29 -108 -44 -124 -62
-10 -11 -36 -29 -58 -40 -22 -12 -59 -39 -81 -62 -23 -23 -72 -68 -108 -101
-36 -33 -66 -66 -66 -72 0 -7 -16 -31 -37 -53 -20 -23 -46 -62 -58 -88 -12
-27 -34 -61 -49 -76 -14 -16 -35 -59 -46 -96 -11 -37 -31 -84 -45 -104 -32
-47 -40 -84 -65 -281 -26 -205 -25 -251 5 -473 22 -165 27 -188 59 -245 18
-34 41 -88 50 -120 9 -32 26 -66 37 -75 11 -9 31 -37 44 -62 13 -25 40 -63 60
-85 20 -22 45 -56 57 -76 11 -21 31 -43 44 -50 13 -6 35 -29 49 -49 14 -20 37
-42 50 -48 14 -7 44 -29 67 -50 24 -22 61 -49 83 -60 22 -11 51 -32 64 -46 13
-14 54 -35 90 -47 36 -12 82 -34 101 -49 19 -15 51 -31 70 -34 19 -4 71 -13
115 -21 44 -8 104 -21 133 -30 44 -13 52 -19 52 -40 l0 -25 360 0 360 0 0 28
c0 32 17 51 70 77 19 10 52 33 74 51 21 18 56 42 77 52 22 11 48 31 60 45 11
15 38 36 59 48 22 13 42 31 46 41 3 10 23 30 45 44 22 13 44 36 49 49 5 13 23
34 40 47 18 13 41 40 51 60 11 21 28 42 39 48 11 6 32 34 46 63 15 29 41 69
59 89 19 23 39 63 49 100 9 35 28 79 42 99 25 36 54 158 54 225 0 19 10 83 21
141 24 116 23 130 -17 458 -18 147 -29 190 -59 229 -12 17 -30 56 -38 86 -10
33 -34 79 -62 114 -25 32 -45 65 -45 72 0 8 -40 54 -88 102 -48 48 -95 99
-105 115 -10 15 -24 27 -32 27 -7 0 -30 20 -50 44 -20 24 -46 47 -59 50 -13 3
-47 24 -76 47 -28 22 -69 47 -92 55 -22 7 -55 27 -74 43 -20 18 -63 39 -106
51 -40 12 -93 35 -118 50 -25 16 -63 32 -85 35 -60 8 -346 11 -460 4z m310
-398 c6 -19 -12 -71 -25 -71 -4 0 -13 14 -20 30 -10 24 -10 33 0 45 17 21 37
19 45 -4z m467 -61 c18 -22 30 -61 42 -132 4 -21 17 -50 30 -65 16 -20 25 -46
29 -88 17 -175 49 -391 63 -428 35 -96 44 -135 59 -254 8 -69 25 -150 36 -181
24 -66 50 -288 42 -353 -7 -57 -16 -67 -83 -96 -30 -14 -67 -37 -81 -53 -24
-26 -81 -50 -121 -50 -9 0 -20 -5 -23 -10 -10 -17 -22 -2 -29 35 -4 20 -15 50
-26 68 -25 43 -37 117 -55 350 -8 109 -17 202 -19 206 -12 19 -27 156 -36 323
-9 176 -25 298 -40 298 -4 0 -15 -9 -24 -19 -10 -11 -30 -24 -46 -31 -22 -9
-33 -26 -54 -83 -15 -39 -37 -83 -51 -97 -16 -16 -32 -55 -45 -104 -11 -44
-30 -93 -43 -110 -32 -43 -44 -77 -61 -181 -8 -49 -26 -124 -40 -165 -13 -42
-31 -136 -40 -212 -9 -75 -20 -147 -25 -160 -22 -56 -106 -165 -153 -198 -28
-19 -57 -39 -64 -45 -19 -14 -108 75 -139 140 -23 47 -26 66 -35 290 -13 310
-15 327 -44 388 -17 35 -30 91 -41 167 -22 161 -26 183 -31 177 -3 -3 -14 -46
-24 -97 -10 -50 -34 -122 -52 -158 l-33 -67 1 -185 c1 -174 2 -190 28 -269 30
-91 30 -128 0 -256 -7 -33 -14 -74 -14 -92 0 -34 -42 -78 -84 -89 -49 -12
-194 68 -230 127 -19 33 -44 236 -52 434 -10 218 28 550 72 639 14 28 31 91
40 145 28 183 36 216 59 256 12 22 28 65 35 95 7 30 18 66 26 80 15 29 90 103
121 119 29 15 123 14 148 -2 58 -34 90 -67 110 -112 13 -27 36 -64 52 -82 16
-18 40 -63 53 -100 13 -37 29 -77 36 -88 7 -11 23 -70 34 -130 24 -126 40
-185 50 -185 6 0 19 37 56 160 9 30 22 64 29 75 6 11 24 56 39 101 31 93 71
154 124 185 20 12 49 35 64 51 15 15 36 28 47 28 13 0 30 14 45 38 13 20 31
44 41 52 23 19 115 29 225 25 72 -3 87 -6 102 -25z"/>
</g>
</svg>
